<?xml version="1.0" encoding="UTF-8"?>
<svg id="_Слой_1" data-name="Слой 1" xmlns="http://www.w3.org/2000/svg" viewBox="0 0 595.28 365.89">
  <defs>
    <style>
      .cls-1 {
        fill: none;
        stroke: #000;
        stroke-miterlimit: 10;
        stroke-width: 6px;
      }
    </style>
  </defs>
  <rect x="163.79" y="261.5" width="82.93" height="18.28"/>
  <rect x="262.28" y="261.5" width="66.78" height="18.28"/>
  <rect x="345.78" y="261.5" width="36.17" height="18.28"/>
  <rect x="400.44" y="261.5" width="31.39" height="18.28"/>
  <rect x="345.78" y="291.83" width="36.17" height="18.28"/>
  <rect x="299.78" y="291.83" width="29.28" height="18.28"/>
  <rect x="262.28" y="291.83" width="29.28" height="18.28"/>
  <polygon points="316.17 279.78 329.06 279.78 329.06 228.67 316.17 238.9 316.17 279.78"/>
  <polygon points="233.83 261.56 246.72 261.56 246.72 210.22 233.83 220.5 233.83 261.56"/>
  <polygon points="262.28 261.5 275.17 261.5 275.17 92.44 262.28 102.72 262.28 261.5"/>
  <polygon points="289.22 261.56 302.11 261.56 302.11 108.11 289.22 118.39 289.22 261.56"/>
  <polygon points="431.83 279.78 444.72 270.64 444.72 228.67 431.83 238.9 431.83 279.78"/>
  <rect x="210.17" y="215.33" width="12.89" height="25.17"/>
  <rect x="189.22" y="215.33" width="12.89" height="25.17"/>
  <rect x="432.83" y="197.64" width="12.89" height="25.17"/>
  <rect x="411.89" y="197.64" width="12.89" height="25.17"/>
  <path d="M304.14,105.71c1.78,0,3.49-.25,5.12-.72-2.84,1.52-6.09,2.38-9.54,2.38-11.18,0-20.25-9.06-20.25-20.24s9.07-20.25,20.25-20.25c3.47,0,6.74,.87,9.59,2.42-1.64-.48-3.37-.74-5.17-.74-10.26,0-18.58,8.32-18.58,18.58s8.32,18.58,18.58,18.58Z"/>
  <path d="M381.96,279.79h-36.18v-36.01h36.18v36.01Zm-32.16-4h28.14v-28.01h-28.14v28.01Z"/>
  <rect x="377.96" y="275.79" width="3.99" height="16.04"/>
  <path class="cls-1" d="M160.79,204.93h.11c-.07,1.69-.11,3.4-.11,5.11v-5.11Z"/>
  <path class="cls-1" d="M403.17,204.93v5.11c0-1.71-.04-3.42-.11-5.11h.11Z"/>
  <path d="M406.06,204.81c-1.31-32.54-14.8-62.92-37.97-85.55-13.7-13.38-29.95-23.22-47.59-29.04v6.29c44.88,15.58,77.52,57.73,79.56,108.55,.07,1.71,.11,3.39,.11,4.98v69.74h6v-69.74c0-1.68-.04-3.44-.11-5.23Zm-248.16,0c-.07,1.81-.11,3.57-.11,5.23v69.74h6v-69.74c0-1.58,.04-3.26,.11-4.99,2.04-50.82,34.68-92.96,79.56-108.54v-6.29c-17.64,5.82-33.89,15.66-47.59,29.04-23.17,22.63-36.66,53.01-37.97,85.55Z"/>
</svg>