<?xml version="1.0" encoding="UTF-8"?>
<svg id="_Слой_1" data-name="Слой 1" xmlns="http://www.w3.org/2000/svg" viewBox="0 0 150.67 154.49">
  <defs>
    <style>
      .cls-1 {
        fill: #fff;
      }
    </style>
  </defs>
  <path class="cls-1" d="M95.95,153.63c-1.12-.75-1.53-1.76-1.52-3.13,.07-5.24,.03-10.49,.03-15.84h14.3c0,1.01,0,2.04,0,3.06,0,4.21-.05,8.42,.03,12.63,.02,1.41-.32,2.5-1.52,3.28h-1.79q-3.65-2.74-7.31-.36c-.16,.1-.29,.24-.44,.36h-1.79Z"/>
  <path class="cls-1" d="M134.99,120.21H34.96V1.04c.48,0,1,0,1.52,0,30.3,0,60.6,0,90.9,0,4.67,0,7.6,2.94,7.6,7.62,0,36.65,0,73.3,0,109.96,0,.49,0,.97,0,1.59ZM41.99,60.59c0,10.23,.06,20.46-.04,30.69-.03,2.84,1.53,3.93,4.1,3.19,7.42-2.13,14.68,3.27,15.01,10.96,.09,2,.96,2.89,2.97,2.89,13.91,.01,27.82,.01,41.72,0,2.03,0,2.92-.87,3.01-2.86,.35-7.78,7.6-13.05,15.14-11.01,2.8,.76,3.93-.1,3.93-2.99,0-20.56,0-41.12,0-61.68,0-2.79-1.18-3.71-3.83-2.99-7.67,2.07-14.85-3.11-15.24-11.02-.09-1.91-.98-2.81-2.9-2.81-13.96-.01-27.92-.01-41.87,0-1.94,0-2.83,.89-2.93,2.78-.4,7.86-7.53,13.11-15.07,11.11-2.92-.78-4,.04-4,3.04,0,10.23,0,20.46,0,30.69Zm.01-45.35c-.04,3.85,3.14,7.13,7.01,7.24,3.86,.1,7.26-3.22,7.27-7.11,.01-3.84-3.19-7.08-7.08-7.16-3.79-.08-7.16,3.21-7.2,7.04Zm78.51,7.24c3.76,.16,7.17-3.07,7.31-6.92,.13-3.81-3-7.16-6.89-7.35-3.79-.19-7.16,2.94-7.39,6.85-.22,3.82,3,7.25,6.97,7.42ZM56.29,105.93c-.04-3.87-3.28-7.11-7.12-7.12-3.9-.01-7.23,3.36-7.16,7.23,.07,3.85,3.35,7.06,7.2,7.05,3.82-.01,7.13-3.36,7.08-7.16Zm64.46-7.12c-3.83-.05-7.13,3.18-7.21,7.04-.08,3.86,3.24,7.22,7.16,7.24,3.81,.02,7.14-3.3,7.13-7.11,0-3.86-3.23-7.12-7.08-7.16Z"/>
  <path class="cls-1" d="M29.96,120.27c-5.37-.28-10.09,1.07-14.2,5.05,0-.91,0-1.48,0-2.05,0-36.36,.12-72.72-.1-109.07C15.62,7.04,20.91,0,29.96,1.13V120.27Z"/>
  <path class="cls-1" d="M23.8,125.73c-1.95,6.19,.42,11.42,5.82,13.06,1.21,.37,2.53,.51,3.81,.51,18.08,.03,36.16,.02,54.24,.02,.59,0,1.19,0,1.9,0v9.47c-.45,.02-.92,.06-1.4,.06-20.17,0-40.33,0-60.5,0-5.66,0-10.4-3.79-11.62-9.24-1.23-5.49,1.41-10.97,6.45-13.39,.35-.17,.72-.28,1.3-.49Z"/>
  <path class="cls-1" d="M120.61,125.06v9.41h-7.08c0-.57,0-1.15,0-1.72-.04-2.07-.93-2.97-3.03-2.97-5.86-.01-11.72,0-17.58,0-2.4,0-3.22,.83-3.24,3.21,0,.45,0,.89,0,1.42-.37,.05-.7,.13-1.03,.13-18.72,0-37.43,0-56.15,0-2.43,0-4.51-1.77-4.8-4.02-.31-2.43,1.04-4.6,3.34-5.31,.46-.14,.97-.19,1.46-.19,29.04,0,58.09,0,87.13,0,.29,0,.58,.03,.98,.04Z"/>
  <path class="cls-1" d="M125.46,125.09h9.42c.04,.28,.11,.56,.11,.84,0,5.36,.03,10.73,0,16.09-.02,3.33-2.68,6.58-5.99,6.73-5.09,.24-10.2,.06-15.38,.06v-9.49c2.31,0,4.62,0,6.93,0,.7,0,1.39,.02,2.09,0,1.88-.05,2.81-.97,2.82-2.88,.02-3.72,0-7.45,0-11.35Z"/>
  <path class="cls-1" d="M65.74,103.5c-2.38-11.13-11.63-15.04-18.87-14.08V31.89c4.5,.48,8.64-.53,12.28-3.26,3.61-2.71,5.71-6.38,6.5-10.84h38.45c2.92,10.05,9.46,14.95,18.88,14.08v57.52c-4.51-.48-8.65,.53-12.28,3.26-3.61,2.71-5.71,6.38-6.51,10.84h-38.45Zm-5.04-59.33c0,1.64-.05,3.28,.02,4.92,.05,1.02-.26,1.77-1.01,2.49-2.36,2.28-4.66,4.61-6.97,6.94-1.6,1.61-1.59,2.67,.02,4.3,2.31,2.33,4.68,4.6,6.92,6.99,.54,.58,.94,1.51,.97,2.3,.11,3.32,.03,6.65,.05,9.98,.01,2.02,.76,2.78,2.78,2.79,3.38,.02,6.76-.04,10.13,.05,.7,.02,1.54,.37,2.05,.86,2.41,2.29,4.73,4.68,7.09,7.03,1.63,1.62,2.69,1.63,4.3,.04,2.4-2.38,4.75-4.8,7.2-7.13,.47-.45,1.27-.78,1.93-.79,3.18-.08,6.36-.03,9.54-.04,2.9,0,3.43-.54,3.43-3.5,0-3.13-.05-6.26,.04-9.39,.02-.7,.36-1.55,.84-2.06,2.29-2.41,4.68-4.73,7.03-7.09,1.66-1.67,1.65-2.72-.02-4.41-2.27-2.29-4.54-4.59-6.86-6.84-.73-.71-1.06-1.43-1.04-2.47,.06-3.28,.03-6.56,.02-9.83-.01-2.13-.73-2.85-2.86-2.86-3.28-.02-6.56-.04-9.83,.02-1.04,.02-1.76-.31-2.47-1.05-2.28-2.36-4.61-4.66-6.94-6.96-1.57-1.55-2.65-1.55-4.2-.02-2.37,2.34-4.67,4.75-7.09,7.02-.57,.54-1.52,.91-2.31,.94-3.13,.11-6.26,.04-9.39,.04-2.8,0-3.35,.56-3.35,3.42,0,1.44,0,2.88,0,4.32Z"/>
  <path class="cls-1" d="M49.14,12.96c1.39,0,2.42,1.05,2.39,2.45-.03,1.32-1.05,2.31-2.38,2.31-1.39,0-2.42-1.05-2.38-2.45,.03-1.33,1.04-2.31,2.37-2.31Z"/>
  <path class="cls-1" d="M120.65,12.96c1.34-.02,2.36,.95,2.42,2.27,.05,1.39-.96,2.47-2.35,2.49-1.39,.02-2.43-1.02-2.41-2.42,.02-1.33,1.01-2.32,2.34-2.34Z"/>
  <path class="cls-1" d="M51.53,105.87c.03,1.39-1,2.45-2.39,2.45-1.33,0-2.34-.99-2.37-2.31-.03-1.4,.99-2.45,2.38-2.45,1.33,0,2.34,.98,2.38,2.31Z"/>
  <path class="cls-1" d="M120.62,103.56c1.4-.03,2.45,1,2.44,2.39,0,1.33-.99,2.34-2.32,2.37-1.39,.03-2.45-1-2.44-2.39,0-1.34,.99-2.34,2.32-2.37Z"/>
  <path class="cls-1" d="M84.92,88.34c-2.33-2.34-4.54-4.48-6.65-6.71-.97-1.02-2.01-1.43-3.42-1.4-3.11,.08-6.23,.03-9.55,.03,0-2.72-.17-5.3,.05-7.84,.23-2.66-.56-4.64-2.63-6.36-1.93-1.6-3.63-3.49-5.54-5.37,2.36-2.36,4.54-4.59,6.79-6.74,.98-.93,1.38-1.94,1.35-3.29-.07-3.12-.02-6.24-.02-9.54,.62-.03,1.15-.08,1.67-.08,2.73,0,5.46-.04,8.19,.01,1.18,.03,2.08-.35,2.9-1.19,2.2-2.28,4.46-4.51,6.86-6.94,1.96,1.98,3.95,3.78,5.67,5.79,1.56,1.83,3.33,2.53,5.72,2.36,2.65-.19,5.33-.04,8.21-.04,0,2.72,.17,5.3-.05,7.84-.23,2.66,.56,4.64,2.62,6.36,1.93,1.6,3.62,3.5,5.59,5.42-2.38,2.33-4.56,4.55-6.83,6.68-.98,.93-1.39,1.93-1.36,3.28,.07,3.12,.02,6.24,.02,9.54-.62,.03-1.14,.08-1.66,.09-2.68,0-5.36,.06-8.04-.02-1.29-.04-2.26,.36-3.16,1.3-2.16,2.26-4.39,4.44-6.74,6.81Zm14.68-37.25c0-.79,.01-1.59,0-2.38-.04-1.94-.77-2.7-2.68-2.74-1.39-.02-2.78-.08-4.17,.02-1.19,.08-2.08-.25-2.87-1.16-.94-1.08-2-2.07-3.04-3.06-1.27-1.21-2.75-1.36-3.75-.02-2.62,3.5-5.92,4.89-10.25,4.27-1.78-.25-2.81,.8-2.55,2.61,.61,4.28-.78,7.53-4.21,10.13-1.46,1.1-1.45,2.69,0,3.8,3.45,2.6,4.8,5.86,4.2,10.13-.25,1.8,.78,2.85,2.56,2.6,4.34-.62,7.63,.78,10.25,4.28,1.03,1.37,2.44,1.22,3.73-.02,1.14-1.1,2.2-2.31,3.4-3.33,.54-.46,1.35-.79,2.06-.84,1.63-.12,3.27,0,4.91-.05,1.55-.04,2.35-.85,2.39-2.42,.04-1.69-.05-3.38,.05-5.06,.04-.62,.34-1.34,.75-1.8,1.15-1.3,2.46-2.46,3.64-3.72,.97-1.04,.96-2.27,.01-3.33-.63-.7-1.27-1.41-1.99-2-1.89-1.54-3.13-3.31-2.45-5.9Z"/>
  <path class="cls-1" d="M99.6,60.62c-4.23,2.45-5.38,5.79-4.38,10.27-4.44-.86-7.91,.09-10.02,3.91-.42-.3-9.92-4.22-10.46-4.33,.83-4.03-.23-7.46-4.4-9.82,4.03-2.43,5.37-5.69,4.22-10.24,4.41,.77,7.96-.02,10.27-4.34,2.49,3.92,5.74,5.41,10.34,4.21-.82,4.46,.04,7.97,4.43,10.34Z"/>
</svg>