<svg width="23" height="19" viewBox="0 0 23 19" fill="none" xmlns="http://www.w3.org/2000/svg">
<path d="M3.142 18.054C2.926 18.054 2.818 17.982 2.818 17.874C2.818 17.766 2.944 17.712 3.088 17.712C4.474 17.64 4.924 17.46 5.788 16.146C6.166 15.552 6.418 15.12 6.598 14.724C6.67 14.526 6.67 14.418 6.562 14.22C5.896 12.852 2.926 7.506 2.17 6.228C1.504 5.04 1.288 4.806 0.316 4.77C0.154 4.77 0.028 4.698 0.028 4.608C0.028 4.518 0.1 4.446 0.334 4.446C0.964 4.446 2.08 4.5 2.656 4.5C2.854 4.5 3.952 4.446 4.744 4.446C4.96 4.446 5.032 4.536 5.032 4.59C5.032 4.68 4.978 4.77 4.744 4.788C4.294 4.806 4.204 4.932 4.204 5.13C4.204 5.22 4.312 5.508 4.474 5.814C4.744 6.354 7.552 11.592 7.894 12.186C8.812 10.278 9.946 7.65 10.576 6.156C10.756 5.742 10.882 5.346 10.882 5.112C10.882 4.932 10.81 4.842 10.576 4.788C10.36 4.734 10.288 4.698 10.288 4.608C10.288 4.5 10.396 4.464 10.63 4.464C10.9 4.464 11.404 4.5 11.926 4.5C12.286 4.5 13.51 4.446 13.834 4.446C14.032 4.446 14.104 4.482 14.104 4.572C14.104 4.68 14.05 4.752 13.852 4.77C13.492 4.788 13.222 4.86 13.042 4.914C12.556 5.094 12.34 5.382 11.926 6.174C10.648 8.658 8.308 13.806 7.408 15.696C7.174 16.236 6.67 17.244 6.616 17.82C6.598 17.946 6.562 17.982 6.472 18C6.238 18.036 3.934 18.054 3.142 18.054ZM3.88 1.638C3.88 1.53 3.934 1.422 4.024 1.332C4.294 1.044 4.672 0.683999 4.78 0.683999C4.852 0.683999 4.888 0.702 4.924 0.791999C5.176 1.44 6.112 2.232 7.786 2.232C9.244 2.232 10.09 1.746 10.864 0.881999C11.026 0.702 11.098 0.665999 11.17 0.665999C11.26 0.665999 11.278 0.827999 11.098 1.098C10.216 2.322 8.614 3.222 6.886 3.222C6.184 3.222 5.266 3.114 4.492 2.538C4.114 2.268 3.88 1.908 3.88 1.638ZM17.194 18.252C15.988 18.252 14.998 18.054 14.584 17.856C14.332 17.73 14.278 17.55 14.26 17.334C14.224 16.776 14.278 15.75 14.314 15.408C14.332 15.192 14.404 15.102 14.494 15.102C14.566 15.102 14.674 15.174 14.692 15.426C14.746 16.938 15.97 17.514 17.374 17.514C18.832 17.514 19.948 16.722 19.948 14.904C19.948 12.87 18.526 12.006 17.104 11.934C16.6 11.898 16.528 11.808 16.528 11.7C16.528 11.592 16.654 11.484 17.104 11.43C18.328 11.286 19.3 10.71 19.3 9.342C19.3 8.082 18.688 7.038 17.032 7.038C15.538 7.038 15.052 7.812 14.998 8.874C14.98 9.126 14.908 9.216 14.8 9.216C14.728 9.216 14.638 9.108 14.638 8.91C14.638 8.316 14.566 7.362 14.566 7.02C14.566 6.822 14.62 6.732 14.746 6.714C14.944 6.678 15.214 6.624 15.574 6.534C16.222 6.372 16.87 6.264 17.716 6.264C20.632 6.264 21.388 7.65 21.388 8.748C21.388 10.224 20.092 11.142 19.066 11.466C19.03 11.484 19.03 11.52 19.066 11.52C20.344 11.808 22.234 12.618 22.234 14.634C22.234 16.74 20.254 18.252 17.194 18.252Z" fill="#C99F69"/>
</svg>
